<svg xmlns="http://www.w3.org/2000/svg" xmlns:xlink="http://www.w3.org/1999/xlink" preserveAspectRatio="xMidYMid" width="574" height="312" viewBox="0 0 574 312">
  <defs>
    <style>
      .cls-1, .cls-14 {
        stroke: #0edc87;
      }

      .cls-1, .cls-12, .cls-14, .cls-8 {
        stroke-width: 2px;
      }

      .cls-1 {
        stroke-dasharray: 8,4;
      }

      .cls-1, .cls-12, .cls-14, .cls-25, .cls-26, .cls-27, .cls-8 {
        fill: none;
      }

      .cls-1, .cls-16, .cls-2, .cls-20, .cls-22, .cls-23, .cls-26, .cls-29, .cls-3, .cls-30, .cls-31, .cls-4, .cls-7, .cls-8 {
        fill-rule: evenodd;
      }

      .cls-2, .cls-6 {
        fill: #0cb296;
      }

      .cls-3 {
        fill: #4f63a6;
      }

      .cls-4 {
        fill: #fff;
      }

      .cls-5 {
        fill: #c75285;
      }

      .cls-31, .cls-7 {
        fill: #181b28;
      }

      .cls-31, .cls-8 {
        stroke: #0edcb7;
      }

      .cls-9 {
        fill: #5c73c1;
      }

      .cls-10 {
        fill: #0cb26f;
      }

      .cls-11 {
        fill: #b54d7c;
      }

      .cls-12, .cls-27 {
        stroke: #0edcb8;
      }

      .cls-13, .cls-23 {
        fill: #0a0c15;
      }

      .cls-15, .cls-22 {
        fill: #0edcb8;
      }

      .cls-16 {
        fill: #0edc87;
      }

      .cls-17 {
        fill: #11131e;
      }

      .cls-18 {
        fill: #273257;
      }

      .cls-19 {
        fill: #6179cc;
      }

      .cls-20 {
        fill: #0ed4b2;
      }

      .cls-21 {
        fill: #3cf0a6;
      }

      .cls-24 {
        fill: #fff568;
        opacity: 0.68;
      }

      .cls-25, .cls-26 {
        stroke: #6179cc;
      }

      .cls-25, .cls-26, .cls-27, .cls-31 {
        stroke-width: 1px;
      }

      .cls-28, .cls-30 {
        fill: #0edcb7;
      }

      .cls-29 {
        fill: #34394f;
      }
    </style>
  </defs>
  <g id="artboard-1">
    <path d="M170.547,227.673 L208.924,227.673 L208.924,140.523 " class="cls-1"/>
    <path d="M390.779,88.591 L469.791,88.591 L469.791,90.855 L390.779,90.855 L390.779,88.591 Z" class="cls-2"/>
    <path d="M293.708,80.668 L390.779,80.668 L390.779,82.932 L293.708,82.932 L293.708,80.668 Z" class="cls-3"/>
    <path d="M289.193,121.414 L347.887,121.414 L347.887,123.677 L289.193,123.677 L289.193,121.414 Z" class="cls-3"/>
    <path d="M323.055,98.777 L381.749,98.777 L381.749,101.041 L323.055,101.041 L323.055,98.777 Z" class="cls-3"/>
    <path d="M302.738,98.777 L311.768,98.777 L311.768,101.041 L302.738,101.041 L302.738,98.777 Z" class="cls-3"/>
    <path d="M133.428,98.777 L142.457,98.777 L142.457,101.041 L133.428,101.041 L133.428,98.777 Z" class="cls-3"/>
    <path d="M93.922,76.141 L142.457,76.141 L142.457,78.405 L93.922,78.405 L93.922,76.141 Z" class="cls-3"/>
    <path d="M83.763,129.336 L116.497,129.336 L116.497,131.600 L83.763,131.600 L83.763,129.336 Z" class="cls-2"/>
    <path d="M105.209,107.832 L137.943,107.832 L137.943,110.095 L105.209,110.095 L105.209,107.832 Z" class="cls-2"/>
    <path d="M113.110,119.150 L130.041,119.150 L130.041,121.414 L113.110,121.414 L113.110,119.150 Z" class="cls-3"/>
    <path d="M328.699,113.491 L343.372,113.491 L343.372,115.755 L328.699,115.755 L328.699,113.491 Z" class="cls-2"/>
    <path d="M298.223,130.468 L328.699,130.468 L328.699,132.732 L298.223,132.732 L298.223,130.468 Z" class="cls-2"/>
    <path d="M343.372,130.468 L390.779,130.468 L390.779,132.732 L343.372,132.732 L343.372,130.468 Z" class="cls-2"/>
    <path d="M399.809,130.468 L409.968,130.468 L409.968,132.732 L399.809,132.732 L399.809,130.468 Z" class="cls-2"/>
    <path d="M270.166,183.664 L266.618,155.368 L291.451,174.232 L278.443,174.232 L270.166,183.664 Z" class="cls-4"/>
    <circle cx="409.405" cy="111.797" r="2.815" class="cls-5"/>
    <circle cx="420.69" cy="111.797" r="2.81" class="cls-6"/>
    <path d="M431.978,108.964 C433.537,108.964 434.800,110.230 434.800,111.793 C434.800,113.356 433.537,114.623 431.978,114.623 C430.420,114.623 429.156,113.356 429.156,111.793 C429.156,110.230 430.420,108.964 431.978,108.964 Z" class="cls-2"/>
    <circle cx="88.845" cy="88.016" r="2.815" class="cls-5"/>
    <circle cx="100.125" cy="88.016" r="2.815" class="cls-6"/>
    <path d="M111.417,85.195 C112.976,85.195 114.239,86.462 114.239,88.025 C114.239,89.588 112.976,90.855 111.417,90.855 C109.859,90.855 108.595,89.588 108.595,88.025 C108.595,86.462 109.859,85.195 111.417,85.195 Z" class="cls-2"/>
    <path d="M327.441,227.673 L225.855,227.673 L225.855,140.523 " class="cls-1"/>
    <path d="M357.789,158.764 L519.113,158.764 C520.218,158.764 521.113,159.659 521.113,160.764 L521.113,266.019 C521.113,267.124 520.218,268.019 519.113,268.019 L357.789,268.019 C356.684,268.019 355.789,267.124 355.789,266.019 L355.789,160.764 C355.789,159.659 356.684,158.764 357.789,158.764 Z" class="cls-7"/>
    <path d="M172.805,33.000 L271.005,33.000 L271.005,131.468 L172.805,131.468 L172.805,33.000 Z" class="cls-8"/>
    <path d="M29.000,169.082 L139.616,169.082 L139.616,280.000 L29.000,280.000 L29.000,169.082 Z" class="cls-8"/>
    <circle cx="367.03" cy="168.64" r="2" class="cls-5"/>
    <circle cx="374.955" cy="168.64" r="1.985" class="cls-9"/>
    <circle cx="382.895" cy="168.64" r="1.985" class="cls-10"/>
    <path d="M58.395,190.577 L106.705,190.577 C107.809,190.577 108.705,191.472 108.705,192.577 L108.705,209.515 C108.705,210.620 107.809,211.515 106.705,211.515 L58.395,211.515 C57.290,211.515 56.395,210.620 56.395,209.515 L56.395,192.577 C56.395,191.472 57.290,190.577 58.395,190.577 Z" class="cls-7"/>
    <path d="M58.395,215.300 L106.705,215.300 C107.809,215.300 108.705,216.195 108.705,217.300 L108.705,234.274 C108.705,235.378 107.809,236.274 106.705,236.274 L58.395,236.274 C57.290,236.274 56.395,235.378 56.395,234.274 L56.395,217.300 C56.395,216.195 57.290,215.300 58.395,215.300 Z" class="cls-7"/>
    <path d="M58.395,240.058 L106.705,240.058 C107.809,240.058 108.705,240.954 108.705,242.058 L108.705,258.997 C108.705,260.102 107.809,260.997 106.705,260.997 L58.395,260.997 C57.290,260.997 56.395,260.102 56.395,258.997 L56.395,242.058 C56.395,240.954 57.290,240.058 58.395,240.058 Z" class="cls-7"/>
    <circle cx="89.735" cy="201.657" r="1.955" class="cls-6"/>
    <circle cx="96.295" cy="201.657" r="1.955" class="cls-6"/>
    <circle cx="102.83" cy="201.657" r="1.95" class="cls-11"/>
    <circle cx="89.735" cy="225.14" r="1.955" class="cls-6"/>
    <circle cx="96.295" cy="225.14" r="1.955" class="cls-6"/>
    <circle cx="102.83" cy="225.14" r="1.95" class="cls-5"/>
    <circle cx="89.735" cy="251.219" r="1.955" class="cls-6"/>
    <circle cx="96.295" cy="251.219" r="1.955" class="cls-6"/>
    <circle cx="102.83" cy="251.219" r="1.95" class="cls-5"/>
    <path d="M202.091,97.202 L242.527,97.202 C243.070,97.188 249.437,95.363 252.430,90.703 C255.624,85.732 254.992,74.838 243.352,73.645 C243.352,73.645 243.302,61.976 230.149,65.522 C231.203,64.051 218.340,48.297 203.741,60.648 C200.848,63.095 197.451,67.153 198.790,73.645 C198.790,73.645 194.448,74.854 192.188,78.519 C188.871,83.899 189.076,96.414 202.091,97.202 Z" class="cls-2"/>
    <path d="M215.590,75.404 L210.815,81.409 L215.389,87.056 L214.478,87.896 L208.968,81.093 L209.879,80.253 L210.035,80.445 L214.705,74.573 L215.590,75.404 Z" class="cls-4"/>
    <path d="M232.842,81.093 L227.331,87.896 L226.420,87.056 L230.994,81.409 L226.219,75.404 L227.104,74.573 L231.775,80.445 L231.931,80.253 L232.842,81.093 Z" class="cls-4"/>
    <path d="M223.901,74.933 L225.116,75.469 L219.235,88.866 L218.020,88.330 L223.901,74.933 Z" class="cls-4"/>
    <g>
      <rect x="-364" y="-274" width="86" height="86" class="cls-12"/>
      <rect x="-365" y="-175" width="87" height="87" class="cls-12"/>
      <rect x="-254" y="-261" width="224" height="163" rx="10" ry="10" class="cls-13"/>
      <rect x="-243" y="-252" width="201" height="141" class="cls-14"/>
      <rect x="-182" y="-183" width="106" height="12" class="cls-15"/>
      <rect x="-165" y="-205" width="88" height="12" class="cls-15"/>
      <path d="M-155.172,-92.000 L-120.828,-92.000 C-119.611,-92.000 -118.625,-91.014 -118.625,-89.797 C-118.625,-88.580 -119.611,-87.594 -120.828,-87.594 L-155.172,-87.594 C-156.389,-87.594 -157.375,-88.580 -157.375,-89.797 C-157.375,-91.014 -156.389,-92.000 -155.172,-92.000 Z" class="cls-16"/>
      <rect x="-237" y="-245" width="188" height="20" class="cls-17"/>
      <circle cx="-62" cy="-134" r="8" class="cls-15"/>
      <rect x="-214" y="-163" width="137" height="26" class="cls-15"/>
      <rect x="-346" y="-254" width="41.969" height="10" class="cls-18"/>
      <rect x="-346" y="-238" width="59" height="10" class="cls-15"/>
      <rect x="-346" y="-221" width="36.313" height="10" class="cls-19"/>
      <path d="M-350.934,-158.897 L-351.679,-158.065 L-351.817,-158.184 L-356.425,-154.215 L-357.164,-155.040 L-352.664,-158.915 L-357.190,-162.816 L-356.445,-163.647 L-351.809,-159.651 L-351.699,-159.746 L-350.960,-158.922 L-350.962,-158.921 L-350.934,-158.897 Z" class="cls-20"/>
      <rect x="-302.312" y="-221" width="15.312" height="10" class="cls-5"/>
      <rect x="-357" y="-252" width="3" height="5.063" class="cls-5"/>
      <rect x="-357" y="-235.531" width="3" height="5.062" class="cls-21"/>
      <rect x="-357" y="-218.062" width="3" height="5.062" class="cls-21"/>
      <rect x="-304.312" y="-156.469" width="10.406" height="1.563" class="cls-15"/>
      <circle cx="-317.015" cy="-158.203" r="3.204" class="cls-12"/>
      <path d="M-308.005,-155.847 L-308.829,-154.997 L-311.162,-157.839 L-311.214,-157.784 L-311.500,-158.048 L-311.500,-155.000 L-312.656,-155.000 L-312.656,-161.406 L-311.500,-161.406 L-311.500,-159.192 L-309.317,-161.574 L-308.463,-160.785 L-310.360,-158.715 L-308.005,-155.847 Z" class="cls-22"/>
      <path d="M-341.671,-161.995 C-341.580,-161.854 -335.061,-162.039 -341.231,-156.065 L-338.189,-156.169 L-338.189,-155.004 L-343.993,-155.004 L-343.993,-156.169 C-343.993,-156.169 -340.128,-157.886 -339.930,-159.082 C-339.561,-161.308 -343.993,-160.247 -343.993,-160.247 L-343.993,-161.413 L-341.671,-161.995 Z" class="cls-22"/>
      <ellipse cx="-333.546" cy="-158.5" rx="2.891" ry="3.5" class="cls-12"/>
      <ellipse cx="-326" cy="-158.5" rx="2.906" ry="3.5" class="cls-12"/>
      <path d="M-208.953,-86.094 L-67.047,-86.094 C-64.812,-86.094 -63.000,-84.282 -63.000,-82.047 C-63.000,-79.812 -64.812,-78.000 -67.047,-78.000 L-208.953,-78.000 C-211.188,-78.000 -213.000,-79.812 -213.000,-82.047 C-213.000,-84.282 -211.188,-86.094 -208.953,-86.094 Z" class="cls-23"/>
      <ellipse cx="-75.795" cy="-234.5" rx="2.205" ry="2.5" class="cls-10"/>
      <circle cx="-67" cy="-234.5" r="2.22" class="cls-19"/>
      <circle cx="-58.205" cy="-234.5" r="2.205" class="cls-5"/>
      <rect x="-230" y="-162" width="120" height="20" class="cls-24"/>
      <rect x="-218" y="-203" width="14" height="15" class="cls-25"/>
      <path d="M-212.342,-197.135 L-210.868,-191.947 L-207.184,-197.135 L-203.500,-193.429 L-203.500,-187.500 L-217.500,-187.500 L-217.500,-194.171 L-212.342,-197.135 Z" class="cls-26"/>
      <ellipse cx="-203.5" cy="-203.563" rx="5.5" ry="5.438" class="cls-27"/>
      <path d="M-294.072,-230.646 L-289.765,-226.320 L-292.385,-223.719 L-296.693,-228.045 L-298.197,-221.997 L-303.236,-236.856 L-304.001,-237.624 L-303.429,-237.427 L-303.623,-237.999 L-302.858,-237.230 L-288.006,-232.113 L-294.072,-230.646 Z" class="cls-4"/>
      <circle cx="387.53" cy="195.61" r="7.94" class="cls-28"/>
      <circle cx="494.75" cy="178.64" r="7.94" class="cls-5"/>
      <path d="M380.903,216.699 L474.800,216.699 L474.800,231.165 L380.903,231.165 L380.903,216.699 Z" class="cls-29"/>
      <path d="M380.903,237.743 L474.800,237.743 L474.800,244.322 L380.903,244.322 L380.903,237.743 Z" class="cls-29"/>
      <path d="M406.053,187.731 L444.394,187.731 L444.394,193.001 L406.053,193.001 L406.053,187.731 Z" class="cls-30"/>
      <path d="M406.053,197.033 L427.216,197.033 L427.216,202.197 L406.053,202.197 L406.053,197.033 Z" class="cls-30"/>
      <path d="M491.867,202.697 L531.500,202.697 C532.605,202.697 533.500,203.593 533.500,204.697 L533.500,278.368 C533.500,279.473 532.605,280.368 531.500,280.368 L491.867,280.368 C490.763,280.368 489.867,279.473 489.867,278.368 L489.867,204.697 C489.867,203.593 490.763,202.697 491.867,202.697 Z" class="cls-31"/>
      <path d="M510.990,269.328 C512.821,269.328 514.305,270.801 514.305,272.617 C514.305,274.434 512.821,275.907 510.990,275.907 C509.158,275.907 507.674,274.434 507.674,272.617 C507.674,270.801 509.158,269.328 510.990,269.328 Z" class="cls-30"/>
      <circle cx="511.19" cy="217.36" r="5.94" class="cls-28"/>
      <path d="M499.949,229.856 L522.418,229.856 L522.418,232.792 L499.949,232.792 L499.949,229.856 Z" class="cls-30"/>
      <path d="M505.240,236.116 L517.127,236.116 L517.127,239.052 L505.240,239.052 L505.240,236.116 Z" class="cls-30"/>
      <path d="M497.304,246.975 L526.404,246.975 L526.404,254.862 L497.304,254.862 L497.304,246.975 Z" class="cls-29"/>
      <path d="M497.304,257.479 L526.404,257.479 L526.404,265.402 L497.304,265.402 L497.304,257.479 Z" class="cls-29"/>
      <path d="M392.705,252.370 L391.220,248.858 C391.220,248.858 388.600,247.994 388.365,250.182 C388.131,252.369 389.347,258.967 389.347,258.967 L398.459,263.562 C398.459,263.562 399.707,263.337 400.432,262.899 C401.157,262.461 404.896,255.201 404.896,255.201 C404.896,255.201 406.424,253.346 399.940,249.939 C399.940,249.939 399.008,249.061 399.534,247.523 C400.023,246.093 402.628,242.382 401.352,241.808 C400.077,241.234 399.315,240.380 397.616,243.793 C395.917,247.205 392.705,252.370 392.705,252.370 Z" class="cls-4"/>
      <path d="M387.216,260.844 L399.013,266.793 L397.818,269.141 L386.020,263.192 L387.216,260.844 Z" class="cls-4"/>
    </g>
  </g>
</svg>
