<svg xmlns="http://www.w3.org/2000/svg" xmlns:xlink="http://www.w3.org/1999/xlink" preserveAspectRatio="xMidYMid" width="135" height="136" viewBox="0 0 135 136">
  <defs>
    <style>
      .cls-1 {
        stroke: #0edc87;
        stroke-width: 1px;
        fill: none;
      }

      .cls-2 {
        fill: #0edc87;
        fill-rule: evenodd;
      }
    </style>
  </defs>
  <circle cx="67.5" cy="68.5" r="65.5" class="cls-1"/>
  <path d="M111.465,73.969 C110.305,95.277 93.224,112.346 71.906,113.497 L71.906,113.562 L69.563,113.562 L69.563,73.969 L69.563,71.656 L71.906,71.656 L111.531,71.656 L111.531,73.969 L111.465,73.969 ZM71.906,73.969 L71.906,110.999 C91.858,109.903 107.841,93.921 108.936,73.969 L71.906,73.969 Z" class="cls-2"/>
  <path d="M107.094,68.719 L104.997,68.719 L65.594,68.719 L65.594,108.122 L65.594,110.438 L65.594,110.656 C42.448,110.647 23.687,91.882 23.687,68.734 C23.687,45.582 42.457,26.812 65.609,26.812 C88.757,26.812 107.522,45.573 107.531,68.719 L107.094,68.719 ZM65.719,29.531 C44.024,29.531 26.437,47.125 26.437,68.828 C26.437,89.637 42.608,106.656 63.063,108.024 L63.063,68.719 L63.063,66.844 L63.063,66.219 L104.903,66.219 C103.559,45.734 86.536,29.531 65.719,29.531 Z" class="cls-2"/>
</svg>
