<svg xmlns="http://www.w3.org/2000/svg" xmlns:xlink="http://www.w3.org/1999/xlink" preserveAspectRatio="xMidYMid" width="135" height="135" viewBox="0 0 135 135">
  <defs>
    <style>
      .cls-1 {
        stroke: #0edc87;
        stroke-width: 1px;
        fill: none;
      }

      .cls-2 {
        fill: #0edc87;
        fill-rule: evenodd;
      }
    </style>
  </defs>
  <g>
    <circle cx="68" cy="68" r="66" class="cls-1"/>
    <path d="M104.862,89.044 L68.034,110.163 L31.341,88.810 L31.476,46.339 L68.304,25.220 L104.997,46.573 L104.862,89.044 ZM68.234,26.904 L32.895,47.185 L32.765,87.973 L67.974,108.480 L103.314,88.198 L103.443,47.410 L68.234,26.904 Z" class="cls-2"/>
    <path d="M67.545,66.442 L104.558,88.037 L103.775,89.379 L66.762,67.785 L67.545,66.442 Z" class="cls-2"/>
    <path d="M103.827,45.938 L66.810,67.517 L67.593,68.859 L104.610,47.280 L103.827,45.938 Z" class="cls-2"/>
    <path d="M69.140,109.251 L68.992,66.398 L67.458,66.405 L67.606,109.257 L69.140,109.251 Z" class="cls-2"/>
    <path d="M69.006,66.414 L32.040,87.978 L32.822,89.318 L69.787,67.754 L69.006,66.414 Z" class="cls-2"/>
    <path d="M32.770,45.938 L69.739,67.487 L68.958,68.827 L31.989,47.278 L32.770,45.938 Z" class="cls-2"/>
  </g>
</svg>
