<svg xmlns="http://www.w3.org/2000/svg" xmlns:xlink="http://www.w3.org/1999/xlink" preserveAspectRatio="xMidYMid" width="20.688" height="33.375" viewBox="0 0 20.688 33.375">
  <defs>
    <style>
      .cls-1 {
        fill: #000;
        fill-rule: evenodd;
      }
    </style>
  </defs>
  <path d="M20.609,23.514 L11.087,33.276 C10.862,33.506 10.323,33.340 9.800,32.930 C9.779,32.916 9.745,32.919 9.727,32.901 L9.570,32.743 C9.559,32.733 9.548,32.727 9.537,32.716 C9.522,32.701 9.513,32.685 9.498,32.671 L0.080,23.190 C-0.187,22.922 0.084,22.238 0.685,21.663 C1.286,21.087 1.989,20.838 2.255,21.106 L9.000,27.895 L9.000,1.500 C9.000,0.672 9.672,0.000 10.500,0.000 C11.328,0.000 12.000,0.672 12.000,1.500 L12.000,28.043 L18.461,21.419 C18.724,21.150 19.418,21.400 20.011,21.979 C20.604,22.557 20.872,23.245 20.609,23.514 Z" class="cls-1"/>
</svg>
