<svg xmlns="http://www.w3.org/2000/svg" xmlns:xlink="http://www.w3.org/1999/xlink" width="71" height="70" viewBox="0 0 71 70">
    <defs>
        <path id="a" d="M0 63.268V0h55.598v63.268z"/>
    </defs>
    <g fill="none" fill-rule="evenodd">
        <path fill="#54C3F6" d="M63.605 64.127c0 3.244-2.589 5.873-5.783 5.873h-42.03c-3.195 0-5.784-2.63-5.784-5.873V13.873c0-3.243 2.59-5.873 5.783-5.873h42.031c3.194 0 5.783 2.63 5.783 5.873v50.254z" opacity=".1"/>
        <g>
            <mask id="b" fill="#fff">
                <use xlink:href="#a"/>
            </mask>
            <path fill="#5D6877" d="M54.598 42.392a1 1 0 0 0-1 1v13.072c0 2.649-2.146 4.804-4.783 4.804H6.785C4.147 61.268 2 59.113 2 56.464V6.804C2 4.156 4.147 2 6.785 2h42.03c2.637 0 4.783 2.156 4.783 4.804v6.448a1 1 0 1 0 2 0V6.804C55.598 3.052 52.555 0 48.815 0H6.785C3.043 0 0 3.052 0 6.804v49.66c0 3.752 3.043 6.804 6.785 6.804h42.03c3.74 0 6.783-3.052 6.783-6.804V43.392a1 1 0 0 0-1-1" mask="url(#b)"/>
        </g>
        <path fill="#5D6877" d="M67.806 21.712l-25.03 25.793c-.634.653-1.966 1.408-2.851 1.615l-9.175 2.157a.848.848 0 0 1-.204.028l-.038.044c0-.001-.03-.088.029-.294l2.466-8.772c.25-.89 1.047-2.24 1.704-2.888L60.049 14.39c.195-.194.46-.3.747-.3.28 0 .539.102.733.286l6.249 5.943c.19.18.299.426.303.69a.97.97 0 0 1-.275.703m1.35-2.842l-6.248-5.943c-1.151-1.093-3.138-1.074-4.264.039L33.303 37.97c-.903.89-1.881 2.548-2.226 3.77l-2.465 8.773c-.217.77-.114 1.489.29 2.023.376.495.959.768 1.644.768.214 0 .437-.028.662-.08l9.174-2.158c1.25-.293 2.933-1.246 3.829-2.17l25.03-25.792a2.963 2.963 0 0 0 .84-2.136 2.958 2.958 0 0 0-.924-2.1"/>
        <path fill="#26C648" d="M35.345 12.04H10.008a1 1 0 1 1 0-2h25.337a1 1 0 1 1 0 2M45.73 18.707H10.008a1 1 0 1 1 0-2H45.73a1 1 0 1 1 0 2M38.897 25.374h-28.89a1 1 0 1 1 0-2h28.89a1 1 0 1 1 0 2M29.896 32.041H10.008a1 1 0 1 1 0-2h19.89a1 1 0 1 1 0 2M26.23 45.105H10.008a1 1 0 1 1 0-2h16.224a1 1 0 1 1 0 2"/>
    </g>
</svg>
