<svg xmlns="http://www.w3.org/2000/svg" xmlns:xlink="http://www.w3.org/1999/xlink" width="79" height="71" viewBox="0 0 79 71">
    <defs>
        <path id="a" d="M35.913 63h35.843V.918H.069V63z"/>
    </defs>
    <g fill="none" fill-rule="evenodd">
        <g transform="translate(7 7.349)">
            <mask id="b" fill="#fff">
                <use xlink:href="#a"/>
            </mask>
            <path fill="#4869AD" fill-opacity=".06" d="M17.991 63L.07 31.959 17.991.918h35.843l17.922 31.041L53.834 63z" mask="url(#b)"/>
        </g>
        <path fill="#5D6877" d="M18.499 0l-18.5 32.041 18.5 32.041h36.997l18.5-32.04L55.496 0H18.499zM2.309 32.041l17.345-30.04h34.688l17.345 30.04-17.345 30.041H19.654L2.309 32.042z"/>
        <path fill="#26C648" d="M31.106 34.757a8.996 8.996 0 0 0 1.735-.405l3.47 3.469-6.302 6.302-6.496 2.363 2.363-6.498 5.23-5.231zm2.73-2.385a1.03 1.03 0 0 0-.635-.285c-.196-.018-.383 0-.543.07-.71.323-1.499.507-2.412.568a2.666 2.666 0 0 0-.22.025c-.08.012-.159.025-.24.025a6.99 6.99 0 0 1-6.853-8.328l3.7 3.7c.2.197.462.306.744.306h4.017c.581 0 1.054-.472 1.054-1.053v-4.017c0-.282-.11-.547-.309-.746l-3.7-3.701a7.304 7.304 0 0 1 1.348-.125c3.85 0 6.981 3.132 6.981 6.98 0 .083-.013.163-.024.244-.01.073-.022.144-.027.218-.06.899-.249 1.685-.573 2.403-.074.164-.1.354-.073.567.031.244.131.456.288.613l9.573 9.573-.004.004 4.7 4.7.033.034c.34.333.526.777.528 1.25.001.475-.184.924-.52 1.267-.666.676-1.85.685-2.53.013l-.123-.12-1.454-1.452.003-.006-12.729-12.727zm11.098-11.445l1.264-1.263a2.897 2.897 0 0 1 2.066-.855c.781 0 1.515.303 2.067.855.551.552.855 1.285.855 2.067 0 .782-.304 1.515-.855 2.066l-1.262 1.265-4.135-4.135zm-6.59 7.91a8.898 8.898 0 0 0 .408-1.726l4.693-4.693 4.135 4.135-5.76 5.76-3.477-3.476zm12.222 12.232l.006-.003-7.263-7.263 8.515-8.515a5.003 5.003 0 0 0 1.472-3.557 5.004 5.004 0 0 0-1.472-3.558l-.427-.426v.046a4.991 4.991 0 0 0-3.13-1.092 4.994 4.994 0 0 0-3.558 1.474l-5.987 5.985c-.777-4.286-4.533-7.46-8.933-7.46a9.198 9.198 0 0 0-3.754.793c-.315.142-.539.43-.603.77a1.05 1.05 0 0 0 .291.935l4.617 4.618v2.527h-2.527l-4.606-4.606a1.05 1.05 0 0 0-.934-.291c-.34.063-.628.288-.77.603a9.025 9.025 0 0 0-.804 3.74c0 4.402 3.173 8.157 7.46 8.935l-3.94 3.939a1.083 1.083 0 0 0-.245.386l-3.214 8.839a1.06 1.06 0 0 0 .245 1.102c.286.286.711.385 1.106.246l8.838-3.214c.142-.052.272-.134.386-.245l6.466-6.466 3.927 3.927-.003.003 4.928 4.929.031.03a3.875 3.875 0 0 0 2.715 1.099l.25-.002v-.008a3.855 3.855 0 0 0 2.52-1.147 3.877 3.877 0 0 0 1.126-2.755 3.845 3.845 0 0 0-1.15-2.74l-1.579-1.578z"/>
    </g>
</svg>
