<svg xmlns="http://www.w3.org/2000/svg" xmlns:xlink="http://www.w3.org/1999/xlink" width="70" height="69" viewBox="0 0 70 69">
    <defs>
        <path id="a" d="M0 69V.287h68.834V69z"/>
    </defs>
    <g fill="none" fill-rule="evenodd">
        <path fill="#4869AD" fill-opacity=".06" d="M69.462 60.273a8.344 8.344 0 0 1-8.344 8.344H27.047a8.344 8.344 0 0 1-8.344-8.344V26.202a8.343 8.343 0 0 1 8.344-8.344h34.07a8.344 8.344 0 0 1 8.345 8.344v34.07z"/>
        <g transform="translate(0 -.287)">
            <mask id="b" fill="#fff">
                <use xlink:href="#a"/>
            </mask>
            <path fill="#5D6877" d="M60.806 16.24h-5.663a2.629 2.629 0 0 1-2.625-2.626V4.913a2.629 2.629 0 0 1 2.625-2.626h9.065a2.629 2.629 0 0 1 2.626 2.626v8.701a2.629 2.629 0 0 1-2.626 2.626h-3.402zm3.402 36.807a2.628 2.628 0 0 1 2.626 2.625v8.702A2.629 2.629 0 0 1 64.208 67h-9.065a2.629 2.629 0 0 1-2.625-2.626v-8.702a2.628 2.628 0 0 1 2.625-2.625h9.065zm-13.69 2.625v3.351H18.316v-3.35a4.631 4.631 0 0 0-4.626-4.626h-3.532V18.24h3.532a4.632 4.632 0 0 0 4.626-4.626v-3.35h32.202v3.35a4.63 4.63 0 0 0 4.625 4.626h3.775v32.807h-3.775a4.63 4.63 0 0 0-4.625 4.625zm-34.202 3.246V64.374A2.629 2.629 0 0 1 13.69 67H4.626A2.629 2.629 0 0 1 2 64.374v-8.702a2.628 2.628 0 0 1 2.626-2.625h9.064a2.628 2.628 0 0 1 2.626 2.625v3.246zM4.626 16.24A2.629 2.629 0 0 1 2 13.614v-8.7a2.629 2.629 0 0 1 2.626-2.627h9.064a2.629 2.629 0 0 1 2.626 2.626v8.701a2.629 2.629 0 0 1-2.626 2.626H4.626zm59.582 2a4.632 4.632 0 0 0 4.626-4.626v-8.7A4.632 4.632 0 0 0 64.208.286h-9.065a4.63 4.63 0 0 0-4.625 4.626v3.35H18.316v-3.35A4.632 4.632 0 0 0 13.69.287H4.626A4.631 4.631 0 0 0 0 4.913v8.701a4.631 4.631 0 0 0 4.626 4.626h3.532v32.807H4.626A4.63 4.63 0 0 0 0 55.672v8.702A4.631 4.631 0 0 0 4.626 69h9.064a4.632 4.632 0 0 0 4.626-4.626v-3.35h32.202v3.35A4.63 4.63 0 0 0 55.143 69h9.065a4.632 4.632 0 0 0 4.626-4.626v-8.702a4.631 4.631 0 0 0-4.626-4.625h-3.29V18.24h3.29z" mask="url(#b)"/>
        </g>
        <path fill="#54EA3F" d="M25.56 26.434l-8.625 7.9 8.625 7.902 1.193-1.478-6.944-6.424 6.944-6.422zM36.677 28.028h-.055l-6.496 16.704h2.107l1.59-4.09h.055l6.496-16.703h-2.107zM43.274 26.434l-1.193 1.478 6.944 6.422-6.944 6.424 1.193 1.478 8.625-7.902z"/>
    </g>
</svg>
